<svg xmlns="http://www.w3.org/2000/svg" version="1.1" xmlns:xlink="http://www.w3.org/1999/xlink" xmlns:svgjs="http://svgjs.dev/svgjs" width="520" height="520"><svg xmlns="http://www.w3.org/2000/svg" xmlns:xlink="http://www.w3.org/1999/xlink" xml:space="preserve" id="SvgjsSvg1020" x="0" y="0" style="enable-background:new 0 0 520 520" version="1.1" viewBox="0 0 520 520">
  <style>
    .st0,.st1{clip-path:url(#SVGID_00000030450705922461592300000002868496866166842532_);fill:#fff}.st1{fill:#243b50}.st2,.st3{clip-path:url(#SVGID_00000144297627807398280660000002800638481052850829_);fill:#fff}.st3{fill:#243b50}
  </style>
  <defs>
    <path id="SvgjsPath1019" d="M0 0h520v520H0z"></path>
  </defs>
  <clipPath id="SvgjsClipPath1018">
    <use xlink:href="#SVGID_1_" style="overflow:visible"></use>
  </clipPath>
  <path d="M260 520c143.6 0 260-116.4 260-260S403.6 0 260 0 0 116.4 0 260s116.4 260 260 260" style="clip-path:url(#SVGID_00000004507264455602667630000006237119417718789767_);fill:#fff"></path>
  <path d="M423.9 142.2c-17 0-32.3 10.2-38.7 25.9 0 0-17.1 39.5-26.9 62-8.1-18.7-22-50.7-26.9-62 0-.1-.1-.2-.2-.4-6.6-15.6-21.6-25.6-38.4-25.6-16.9 0-31.5 9.4-38.2 24.6l-.2.3c0 .1-.1.2-.1.3 0 0-17.5 40.6-27.1 62.8-2.7-6.2-6-13.8-9.3-21.6L202.5 173l-3.1-6.8c0-.1-.1-.2-.1-.3-7.6-15.1-21.3-23.7-37.7-23.8-16.3 0-31.4 9.9-38.4 25.4l-.7 1.5-64.6 149.4c-2.6 5.9-3.8 11.4-3.8 17.4 0 23.2 18.8 42.1 41.9 42.1 16.5 0 31.3-9.9 38.6-25.7 0 0 0-.1.1-.2l26.8-62.1 26.8 62.1c.1.2.2.5.3.7 7.7 16.3 21.2 25.2 38.2 25.2h.2c16.7-.1 30.8-9.4 38.6-25.6 0-.1.1-.2.1-.2l26.8-62.1 26.8 62.1s0 .1.1.1l.1.2c4.3 10.3 12.6 18.5 22.9 22.6 4.9 1.9 10.1 2.9 15.5 2.9 11.6 0 22.7-4.7 30.4-13 5.1-5.5 8.2-12.4 10.8-18.4l55.1-127.4c4.5-10.4 6.6-15 7.5-17.3 2.5-5.5 3.8-11.4 3.8-17.6.3-23.1-18.5-42-41.6-42" style="clip-path:url(#SVGID_00000004507264455602667630000006237119417718789767_);fill:#243b50"></path>
  <defs>
    <path id="SvgjsPath1017" d="M0 0h520v520H0z"></path>
  </defs>
  <clipPath id="SvgjsClipPath1016">
    <use xlink:href="#SVGID_00000018942122979724459650000002880592173279002042_" style="overflow:visible"></use>
  </clipPath>
  <path d="M260 520c143.6 0 260-116.4 260-260S403.6 0 260 0 0 116.4 0 260s116.4 260 260 260" style="clip-path:url(#SVGID_00000053543259289399167920000006769719261208923533_);fill:#fff"></path>
  <path d="M423.9 142.2c-17 0-32.3 10.2-38.7 25.9 0 0-17.1 39.5-26.9 62-8.1-18.7-22-50.7-26.9-62 0-.1-.1-.2-.2-.4-6.6-15.6-21.6-25.6-38.4-25.6-16.9 0-31.5 9.4-38.2 24.6l-.2.3c0 .1-.1.2-.1.3 0 0-17.5 40.6-27.1 62.8-2.7-6.2-6-13.8-9.3-21.6L202.5 173l-3.1-6.8c0-.1-.1-.2-.1-.3-7.6-15.1-21.3-23.7-37.7-23.8-16.3 0-31.4 9.9-38.4 25.4l-.7 1.5-64.6 149.4c-2.6 5.9-3.8 11.4-3.8 17.4 0 23.2 18.8 42.1 41.9 42.1 16.5 0 31.3-9.9 38.6-25.7 0 0 0-.1.1-.2l26.8-62.1 26.8 62.1c.1.2.2.5.3.7 7.7 16.3 21.2 25.2 38.2 25.2h.2c16.7-.1 30.8-9.4 38.6-25.6 0-.1.1-.2.1-.2l26.8-62.1 26.8 62.1s0 .1.1.1l.1.2c4.3 10.3 12.6 18.5 22.9 22.6 4.9 1.9 10.1 2.9 15.5 2.9 11.6 0 22.7-4.7 30.4-13 5.1-5.5 8.2-12.4 10.8-18.4l55.1-127.4c4.5-10.4 6.6-15 7.5-17.3 2.5-5.5 3.8-11.4 3.8-17.6.3-23.1-18.5-42-41.6-42" style="clip-path:url(#SVGID_00000053543259289399167920000006769719261208923533_);fill:#243b50"></path>
</svg><style>@media (prefers-color-scheme: light) { :root { filter: none; } }
@media (prefers-color-scheme: dark) { :root { filter: none; } }
</style></svg>